SplineFontDB: 3.0
FontName: Rozerofo
FullName: Rozerofo
FamilyName: Rozerofo
Weight: Rozerofo
Copyright: Copyright (c) 2017, Kisaragi Hiu
UComments: "2017-4-29: Created with FontForge (http://fontforge.org)"
Version: 0.1
ItalicAngle: -31.4
UnderlinePosition: -102.4
UnderlineWidth: 51.2
Ascent: 819
Descent: 205
InvalidEm: 0
LayerCount: 2
Layer: 0 0 "+gMyXYgAA" 1
Layer: 1 0 "+Uk2XYgAA" 0
XUID: [1021 811 1269689650 7253454]
FSType: 0
OS2Version: 0
OS2_WeightWidthSlopeOnly: 0
OS2_UseTypoMetrics: 1
CreationTime: 1493454996
ModificationTime: 1493723259
PfmFamily: 17
TTFWeight: 400
TTFWidth: 5
LineGap: 92
VLineGap: 0
OS2TypoAscent: 0
OS2TypoAOffset: 1
OS2TypoDescent: 0
OS2TypoDOffset: 1
OS2TypoLinegap: 92
OS2WinAscent: 0
OS2WinAOffset: 1
OS2WinDescent: 0
OS2WinDOffset: 1
HheadAscent: 0
HheadAOffset: 1
HheadDescent: 0
HheadDOffset: 1
OS2Vendor: 'PfEd'
MarkAttachClasses: 1
DEI: 91125

StartChar: T
Encoding: 84 84 0
Width: 673
VWidth: 0
Flags: HW
LayerCount: 2
Fore
SplineSet
423 787 m 0
 499 790 507 784 622 775 c 0
 644 773 629 678 623 657 c 0
 620 648 577 648 570 655 c 0
 558 667 584 708 566 709 c 0
 461 714 415 740 413 705 c 0
 395 415 440 186 537 142 c 0
 568 128 542 395 550 398 c 0
 552 399 613 386 617 379 c 0
 623 370 655 11 583 35 c 0
 419 89 343 202 335 736 c 4
 334 793 366 785 423 787 c 0
260 104 m 0
 260 141 273 495 270 467 c 0
 260 377 204 212 137 99 c 0
 127 83 260 83 260 104 c 0
29 53 m 0
 156 266 218 495 260 665 c 0
 269 703 264 710 264 716 c 0
 264 743 175 721 168 721 c 0
 111 721 120 713 91 713 c 0
 79 713 93 678 82 676 c 0
 53 672 27 673 19 677 c 0
 7 683 6 788 38 784 c 0
 130 772 210 801 288 792 c 0
 311 789 334 768 333 759 c 0
 330 705 335 275 335 30 c 0
 335 17 13 26 29 53 c 0
EndSplineSet
Validated: 33
EndChar

StartChar: L
Encoding: 76 76 1
Width: 677
VWidth: 0
Flags: HW
LayerCount: 2
Fore
SplineSet
255 708 m 0
 260 745 162 726 162 726 c 2
 151 729 162 641 151 639 c 0
 122 635 89 638 88 647 c 0
 87 657 86 792 99 792 c 0
 189 792 214 802 292 792 c 0
 315 789 338 766 337 757 c 0
 311 508 257 181 47 45 c 0
 27 32 37 259 37 359 c 0
 37 363 91 363 104 368 c 0
 118 373 100 196 112 216 c 0
 207 374 213 395 255 708 c 0
434 787 m 0
 510 790 518 784 633 775 c 0
 655 773 644 91 637 70 c 0
 634 61 575 61 568 68 c 0
 558 78 576 693 559 696 c 0
 460 714 432 722 419 706 c 0
 408 693 417 156 417 144 c 4
 417 136 464 139 478 145 c 0
 488 149 472 192 482 201 c 0
 495 213 519 206 531 206 c 0
 543 206 539 183 540 155 c 0
 541 122 538 65 539 63 c 0
 545 54 369 58 344 66 c 0
 319 74 351 202 343 736 c 0
 342 793 377 785 434 787 c 0
EndSplineSet
Validated: 33
EndChar

StartChar: E
Encoding: 69 69 2
Width: 673
VWidth: 0
Flags: HW
LayerCount: 2
Fore
SplineSet
426 350 m 0
 427 321 418 133 436 97 c 0
 445 79 572 102 573 115 c 0
 579 183 575 323 571 362 c 0
 570 374 426 366 426 350 c 0
166 729 m 0
 110 735 115 729 86 729 c 0
 27 729 -27 778 38 784 c 0
 130 793 210 801 288 792 c 0
 311 789 334 768 333 759 c 0
 330 705 314 688 286 660 c 0
 250 624 225 622 224 565 c 0
 222 485 347 478 326 401 c 0
 285 251 138 119 173 111 c 0
 222 100 224 129 302 127 c 0
 327 126 325 45 300 41 c 0
 199 26 13 5 36 43 c 0
 155 238 229 338 244 397 c 0
 254 438 124 512 140 573 c 0
 152 618 162 640 196 672 c 0
 278 749 202 725 166 729 c 0
430 787 m 0
 506 790 514 784 629 775 c 0
 651 773 636 678 630 657 c 0
 627 648 584 648 577 655 c 0
 565 667 591 708 573 709 c 0
 468 714 421 727 419 692 c 0
 410 513 414 473 422 439 c 0
 429 409 484 438 517 439 c 0
 551 440 627 455 631 430 c 0
 635 409 660 43 605 42 c 0
 512 40 373 6 365 61 c 0
 356 122 342 531 339 736 c 0
 338 793 373 785 430 787 c 0
EndSplineSet
Validated: 33
EndChar

StartChar: F
Encoding: 70 70 3
Width: 673
VWidth: 0
Flags: HW
LayerCount: 2
Fore
SplineSet
142 709 m 0
 168 407 144 115 85 41 c 0
 61 11 14 62 40 94 c 4
 86 149 85 518 64 717 c 4
 61 748 51 807 92 808 c 0
 164 810 121 777 151 774 c 0
 327 757 394 771 571 761 c 0
 607 759 654 782 650 746 c 0
 644 691 647 649 646 589 c 0
 645 556 580 548 573 581 c 0
 545 718 587 672 573 688 c 0
 543 722 459 692 364 698 c 0
 339 700 337 591 338 451 c 0
 338 430 568 444 568 422 c 0
 568 417 556 200 654 48 c 0
 658 42 614 11 589 44 c 0
 475 189 512 363 493 359 c 0
 448 350 340 368 340 362 c 0
 342 253 342 119 335 30 c 0
 267 43 l 0
 255 58 268 397 263 698 c 0
 263 726 141 717 142 709 c 0
EndSplineSet
Validated: 33
EndChar

StartChar: K
Encoding: 75 75 4
Width: 673
VWidth: 0
Flags: HW
LayerCount: 2
Fore
SplineSet
595 798 m 0
 589 723 539 209 652 82 c 0
 657 77 579 40 575 46 c 0
 460 228 510 637 501 730 c 0
 499 750 377 739 379 737 c 0
 399 715 458 157 345 47 c 0
 333 35 289 117 294 126 c 0
 382 288 298 790 299 795 c 0
 303 811 596 806 595 798 c 0
110 114 m 0
 110 111 248 129 273 116 c 0
 300 102 286 48 280 46 c 0
 261 40 31 36 31 45 c 0
 33 164 21 776 27 795 c 0
 32 811 237 800 243 802 c 0
 247 803 246 649 234 617 c 0
 229 604 204 614 187 622 c 0
 172 629 181 739 176 742 c 0
 154 755 103 739 103 736 c 0
 100 682 110 359 110 114 c 0
EndSplineSet
Validated: 33
EndChar

StartChar: J
Encoding: 74 74 6
Width: 677
VWidth: 0
Flags: HW
LayerCount: 2
Fore
SplineSet
254 713 m 0
 260 750 92 716 58 729 c 0
 44 734 43 775 66 785 c 0
 98 799 220 786 292 792 c 0
 315 794 338 766 337 757 c 0
 311 508 249 190 76 41 c 0
 62 29 6 81 31 110 c 0
 160 259 204 379 254 713 c 0
434 787 m 0
 510 790 518 785 633 775 c 0
 655 773 644 91 637 70 c 0
 634 61 571 68 564 75 c 0
 554 85 573 705 556 704 c 0
 477 701 432 721 422 708 c 0
 416 701 408 97 400 77 c 0
 389 50 390 47 344 66 c 0
 320 76 351 202 343 736 c 0
 342 793 377 785 434 787 c 0
EndSplineSet
Validated: 33
EndChar

StartChar: I
Encoding: 73 73 7
Width: 673
VWidth: 0
Flags: HW
LayerCount: 2
Fore
SplineSet
36 43 m 4
 70 254 94 422 117 708 c 4
 119 732 98 706 46 708 c 4
 15 709 37 766 60 788 c 4
 77 804 184 800 199 779 c 4
 217 754 180 312 138 124 c 4
 131 93 241 113 319 111 c 4
 344 110 348 38 323 34 c 4
 222 19 29 -1 36 43 c 4
626 43 m 4
 626 20 560 9 559 31 c 4
 550 170 559 454 549 480 c 4
 545 490 422 484 421 480 c 4
 414 455 423 193 424 37 c 4
 424 13 355 10 352 42 c 4
 346 103 330 734 338 769 c 4
 345 801 392 784 410 781 c 4
 432 777 409 552 421 551 c 4
 438 550 520 555 541 561 c 4
 561 567 550 622 559 757 c 4
 562 808 626 777 627 763 c 4
 636 604 631 318 626 43 c 4
EndSplineSet
Validated: 33
EndChar

StartChar: H
Encoding: 72 72 8
Width: 673
VWidth: 0
Flags: HW
LayerCount: 2
Fore
SplineSet
176 793 m 0
 193 800 314 818 315 791 c 0
 323 499 320 189 307 36 c 0
 304 0 45 16 33 34 c 0
 12 64 96 220 50 323 c 0
 38 351 99 390 102 385 c 0
 179 252 110 137 126 105 c 4
 137 83 215 77 237 99 c 0
 251 113 248 525 241 714 c 0
 240 728 173 718 169 729 c 0
 165 740 165 789 176 793 c 0
648 40 m 0
 656 18 581 6 566 27 c 0
 549 50 541 238 531 264 c 0
 527 274 406 266 405 262 c 0
 398 237 407 197 408 41 c 0
 408 17 330 15 327 47 c 0
 321 108 321 749 329 784 c 0
 336 816 376 783 394 780 c 0
 416 776 393 329 405 328 c 0
 422 327 512 334 533 340 c 0
 553 346 514 702 533 757 c 0
 550 805 600 777 601 763 c 0
 607 651 616 454 616 258 c 0
 616 220 625 100 648 40 c 0
EndSplineSet
Validated: 33
EndChar

StartChar: A
Encoding: 65 65 9
Width: 673
VWidth: 0
Flags: HWO
LayerCount: 2
Fore
SplineSet
282 722 m 0
 181 724 118.122960791 734.416145923 122 709 c 0
 149 532 340.494749775 548.691647633 301 458 c 0
 274 396 106 124 132 120 c 0
 171 114 246 107 262 120 c 0
 277 132 271 209 271 231 c 0
 271 256 354 253 354 238 c 0
 354 178 361 52 336 51 c 0
 255 48 192.047837997 26.2775134862 42 52 c 0
 -28 64 114.452148438 288.614257812 208 457 c 0
 236.88227545 508.988095809 41 494 21 784 c 0
 20.0269896333 798.108650317 225.007919487 793.30533557 308 791 c 0
 344 790 318.006827433 721.286993516 282 722 c 0
423 787 m 0
 499 790 507 784 622 775 c 0
 644 773 629.90651866 677.71955598 623 657 c 0
 620 648 560.268554688 649.127929688 561 659 c 0
 563 686 575 712 557 713 c 0
 452 718 413 740 413 705 c 0
 413 484 445 281 538 178 c 4
 560.873905368 152.666534915 547.35801073 385.179005365 555 389 c 0
 557 390 618 377 622 370 c 0
 628 361 627 25 583 35 c 0
 367 84 328 520 332 736 c 0
 333 793 366 785 423 787 c 0
EndSplineSet
EndChar

StartChar: zero
Encoding: 48 48 18
Width: 673
VWidth: 0
Flags: HW
LayerCount: 2
Fore
SplineSet
173 459 m 24
 169 318 196 151 337 147 c 0
 476 143 502 311 506 450 c 24
 509 569 472 702 353 705 c 0
 231 708 177 581 173 459 c 24
96 471 m 24
 101 634 194 802 357 798 c 24
 516 794 584 657 585 459 c 4
 586 274 521 49 336 54 c 24
 148 59 91 283 96 471 c 24
EndSplineSet
Validated: 33
EndChar

StartChar: one
Encoding: 49 49 19
Width: 673
VWidth: 0
Flags: HW
LayerCount: 2
Fore
SplineSet
308 810 m 4
 390 810 410 792 410 760 c 4
 406 446 404 382 404 136 c 4
 404 120 464 141 556 119 c 4
 577 114 573 46 553 46 c 4
 337 41 397 42 169 40 c 4
 139 40 138 123 168 125 c 4
 286 133 309 121 310 153 c 4
 314 405 306 462 304 704 c 4
 304 734 251 651 232 676 c 4
 206 710 193 723 206 742 c 4
 221 763 282 810 308 810 c 4
EndSplineSet
Validated: 33
EndChar

StartChar: two
Encoding: 50 50 20
Width: 673
VWidth: 0
Flags: HW
LayerCount: 2
Fore
SplineSet
114 684 m 0
 158 726 218 795 334 789 c 0
 488 782 612 568 476 362 c 0
 393 236 476 362 264 108 c 0
 241 81 398 108 530 108 c 0
 550 108 564 33 534 30 c 0
 350 14 286 16 134 22 c 0
 82 24 95 76 132 112 c 0
 253 229 224 190 378 370 c 0
 424 424 466 581 398 658 c 0
 316 750 241 638 178 612 c 0
 146 599 89 661 114 684 c 0
EndSplineSet
Validated: 33
EndChar

StartChar: three
Encoding: 51 51 21
Width: 673
VWidth: 0
Flags: HW
LayerCount: 2
Fore
SplineSet
453 375 m 0
 551 308 532 100 389 49 c 0
 280 10 202 48 146 72 c 0
 115 86 136 148 170 146 c 0
 238 143 349 81 398 178 c 0
 448 277 390 308 314 358 c 0
 301 367 295 427 316 438 c 0
 397 478 451 553 433 619 c 4
 405 720 279 654 211 651 c 0
 177 649 144 726 175 740 c 0
 231 764 311 809 418 764 c 4
 561 704 549 469 453 415 c 0
 407 389 399 412 453 375 c 0
EndSplineSet
Validated: 33
EndChar

StartChar: nine
Encoding: 57 57 22
Width: 673
VWidth: 0
Flags: HW
LayerCount: 2
Fore
SplineSet
173 459 m 24
 169 318 196 151 337 147 c 0
 476 143 502 311 506 450 c 24
 509 569 472 702 353 705 c 0
 231 708 177 581 173 459 c 24
96 471 m 24
 101 634 194 802 357 798 c 24
 516 794 584 657 585 459 c 4
 586 274 521 49 336 54 c 24
 148 59 91 283 96 471 c 24
EndSplineSet
Validated: 33
EndChar

StartChar: eight
Encoding: 56 56 23
Width: 673
VWidth: 0
Flags: HW
LayerCount: 2
Fore
SplineSet
173 459 m 24
 169 318 196 151 337 147 c 0
 476 143 502 311 506 450 c 24
 509 569 472 702 353 705 c 0
 231 708 177 581 173 459 c 24
96 471 m 24
 101 634 194 802 357 798 c 24
 516 794 584 657 585 459 c 4
 586 274 521 49 336 54 c 24
 148 59 91 283 96 471 c 24
EndSplineSet
Validated: 33
EndChar

StartChar: seven
Encoding: 55 55 24
Width: 673
VWidth: 0
Flags: HW
LayerCount: 2
Fore
SplineSet
173 459 m 24
 169 318 196 151 337 147 c 0
 476 143 502 311 506 450 c 24
 509 569 472 702 353 705 c 0
 231 708 177 581 173 459 c 24
96 471 m 24
 101 634 194 802 357 798 c 24
 516 794 584 657 585 459 c 4
 586 274 521 49 336 54 c 24
 148 59 91 283 96 471 c 24
EndSplineSet
Validated: 33
EndChar

StartChar: four
Encoding: 52 52 25
Width: 673
VWidth: 0
Flags: HW
LayerCount: 2
Fore
SplineSet
173 459 m 24
 169 318 196 151 337 147 c 0
 476 143 502 311 506 450 c 24
 509 569 472 702 353 705 c 0
 231 708 177 581 173 459 c 24
96 471 m 24
 101 634 194 802 357 798 c 24
 516 794 584 657 585 459 c 4
 586 274 521 49 336 54 c 24
 148 59 91 283 96 471 c 24
EndSplineSet
Validated: 33
EndChar

StartChar: five
Encoding: 53 53 26
Width: 673
VWidth: 0
Flags: HW
LayerCount: 2
Fore
SplineSet
173 459 m 24
 169 318 196 151 337 147 c 0
 476 143 502 311 506 450 c 24
 509 569 472 702 353 705 c 0
 231 708 177 581 173 459 c 24
96 471 m 24
 101 634 194 802 357 798 c 24
 516 794 584 657 585 459 c 4
 586 274 521 49 336 54 c 24
 148 59 91 283 96 471 c 24
EndSplineSet
Validated: 33
EndChar

StartChar: six
Encoding: 54 54 27
Width: 673
VWidth: 0
Flags: HW
LayerCount: 2
Fore
SplineSet
173 459 m 24
 169 318 196 151 337 147 c 0
 476 143 502 311 506 450 c 24
 509 569 472 702 353 705 c 0
 231 708 177 581 173 459 c 24
96 471 m 24
 101 634 194 802 357 798 c 24
 516 794 584 657 585 459 c 4
 586 274 521 49 336 54 c 24
 148 59 91 283 96 471 c 24
EndSplineSet
Validated: 33
EndChar

StartChar: G
Encoding: 71 71 28
Width: 673
VWidth: 0
Flags: HW
LayerCount: 2
Fore
SplineSet
155 322 m 4
 136 337 123 127 143 126 c 4
 369 112 381 107 532 135 c 4
 547 138 541 318 540 321 c 4
 533 338 166 313 155 322 c 4
142 695 m 4
 144 585 144 494 144 421 c 4
 144 387 621 409 621 373 c 4
 620 301 630 49 602 53 c 4
 564 58 55 22 56 63 c 4
 62 371 75 509 63 709 c 4
 58 791 141 767 150 766 c 4
 250 756 593 780 626 741 c 4
 662 699 647 641 645 581 c 4
 644 548 579 540 572 573 c 4
 544 710 586 664 572 680 c 4
 562 691 142 697 142 695 c 4
EndSplineSet
Validated: 33
EndChar

StartChar: B
Encoding: 66 66 30
Width: 673
VWidth: 0
Flags: HW
LayerCount: 2
Fore
SplineSet
176 793 m 4
 193 800 314 818 315 791 c 4
 323 499 320 189 307 36 c 4
 304 0 45 16 33 34 c 4
 12 64 103 317 41 411 c 4
 24 436 96 498 99 493 c 4
 188 360 98 133 113 101 c 4
 124 79 215 77 237 99 c 4
 251 113 248 525 241 714 c 4
 240 728 173 718 169 729 c 4
 165 740 165 789 176 793 c 4
632 626 m 4
 633 603 574 601 559 622 c 4
 542 645 562 685 552 711 c 4
 548 721 411 714 410 710 c 4
 404 689 405 381 406 177 c 4
 406 156 524 324 568 324 c 4
 576 324 597 328 630 321 c 4
 640 319 633 91 630 43 c 4
 628 9 564 30 562 32 c 4
 556 37 562 227 556 220 c 4
 518 173 408 46 408 41 c 4
 408 17 330 15 327 47 c 4
 321 108 321 749 329 784 c 4
 336 816 600 790 618 790 c 4
 644 790 630 698 632 626 c 4
EndSplineSet
Validated: 33
EndChar

StartChar: C
Encoding: 67 67 31
Width: 673
VWidth: 0
Flags: HW
LayerCount: 2
Fore
SplineSet
327 369 m 0
 323 345 326 191 329 107 c 0
 329 94 479 87 515 105 c 0
 519 107 512 292 513 359 c 0
 514 389 330 387 327 369 c 0
198 764 m 4
 214 462 171 204 125 106 c 0
 123 103 249 102 249 102 c 0
 249 352 251 478 249 764 c 0
 249 795 324 793 325 762 c 0
 327 668 328 641 330 449 c 0
 330 428 549 433 568 422 c 0
 599 403 585 203 597 32 c 1
 597 32 10 14 31 48 c 0
 77 124 144 462 120 760 c 4
 118 787 197 791 198 764 c 4
EndSplineSet
Validated: 33
EndChar

StartChar: S
Encoding: 83 83 34
Width: 673
VWidth: 0
Flags: HW
LayerCount: 2
Fore
SplineSet
601 780 m 1
 601 780 404 109 438 106 c 0
 446 105 501 108 540 110 c 0
 549 110 540 133 549 198 c 4
 551 212 617 211 619 194 c 4
 627 122 631 26 629 26 c 0
 548 25 333 -11 327 47 c 0
 321 108 453 672 479 712 c 0
 489 728 328 742 327 714 c 0
 319 388 319 176 307 36 c 0
 304 0 45 16 33 34 c 0
 12 64 117 198 55 292 c 0
 38 317 110 379 113 374 c 0
 202 241 112 142 127 110 c 0
 138 88 205 88 227 110 c 0
 241 124 254 525 241 714 c 0
 240 728 134 713 130 724 c 0
 126 735 126 784 137 788 c 0
 151 794 579 816 601 780 c 1
EndSplineSet
Validated: 33
EndChar

StartChar: D
Encoding: 68 68 36
Width: 673
VWidth: 0
Flags: HW
LayerCount: 2
Fore
SplineSet
380 656 m 5
 375.903320312 655.272460938 375 420 374 406 c 5
 453 404 504.374023438 410 511 410 c 0
 513 410 513.711827899 663.372903261 511 665 c 0
 506 668 443.390625 651.7265625 380 656 c 5
594 786 m 0
 591 348 590 284 646 40 c 0
 654.2890625 3.884765625 577.791015625 5.2822265625 565 40 c 0
 551 78 520 152 516 334 c 0
 515.541015625 354.875 160.217021903 347.642569475 160 342 c 0
 152 134 137 136 100 25 c 0
 98.8598245749 21.5794737247 18.0863694484 10.1815105276 31 48 c 0
 59 130 104 453 80 751 c 0
 78 778 155.810596859 781.929658629 158 755 c 0
 158.590151754 747.741133427 159.156193668 740.405462897 159.697228335 732.999992845 c 0
 160.323829471 724.423322546 515.44140625 737.752929688 516 729 c 0
 516.326171875 723.892578125 513.000976562 774 519 782 c 0
 524.53125 789.375976562 594.048828125 793.071289062 594 786 c 0
304.556640625 661 m 5
 237.575195312 665.515625 162.842703188 658.0165979 163 655 c 0
 164.263671875 630.765625 161.304417358 437.027336243 162 412 c 0
 162.149414062 406.624023438 248.190429688 417.18359375 310 410 c 5
 306.663085938 412.131835938 315.280273438 664.359375 304.556640625 661 c 5
EndSplineSet
EndChar

